<svg xmlns="http://www.w3.org/2000/svg" data-name="Layer 1" viewBox="0 0 64 64"><circle cx="16" cy="48" r="14" fill="#e3fcfd"/><circle cx="45.5" cy="49.5" r="7.5" fill="#42eaf5"/><circle cx="18" cy="7" r="5" fill="#42eaf5"/><path fill="#42eaf5" d="M30 48c0-.083-.01093-.16315-.01239-.24579a8.49066 8.49066 0 0 0-9.6748 13.56165A14.00092 14.00092 0 0 0 30 48zM9.5 43a4.48751 4.48751 0 0 0 2.29071-8.3537 14.01111 14.01111 0 0 0-6.71448 4.6098A4.49165 4.49165 0 0 0 9.5 43z"/><path fill="#007da1" d="M15.98215 63.9977c8.71217.15536 16.344-7.59674 15.98491-16.29542C31.815 33.84856 14.65292 26.77534 4.82427 36.55279-5.38478 46.40117 1.68247 64.01769 15.98215 63.9977zm4-8.5a6.5231 6.5231 0 0 1 7.941-6.33648 12.08261 12.08261 0 0 1-6.96863 9.74432A6.449 6.449 0 0 1 19.98215 55.4977zm7.62066-10.43951c-7.96127-1.00252-14.17562 7.70246-10.61737 14.88867C8.1035 60.8832 1.25529 51.23619 5.00229 43.17446c5.0087 4.83038 13.122-.69574 10.49084-7.152A11.98034 11.98034 0 0 1 27.60281 45.05819zM7.39169 39.63656a12.35132 12.35132 0 0 1 4.00781-2.725 2.4877 2.4877 0 1 1-4.086 2.811C7.34024 39.69448 7.36465 39.66427 7.39169 39.63656zM55.649 15.58479a1.99928 1.99928 0 0 0-2.82813 0l-19 19A1.99979 1.99979 0 0 0 36.649 37.41291l19-19A1.99926 1.99926 0 0 0 55.649 15.58479zM32.32086 24.91406a1.99928 1.99928 0 0 0 2.82813 0l21.5-21.5A1.99979 1.99979 0 1 0 53.82086.58594l-21.5 21.5A1.99926 1.99926 0 0 0 32.32086 24.91406zM26.23492 28.99885a2.0002 2.0002 0 0 0 4-.00008A2.0002 2.0002 0 0 0 26.23492 28.99885zM12.23492 19.99885a2.00021 2.00021 0 0 0-.00008-4A2.00021 2.00021 0 0 0 12.23492 19.99885zM30.73492 14.49885a1.99269 1.99269 0 0 0 1.41407-.58594l8.5-8.5A2 2 0 0 0 37.8208 2.58485l-8.49994 8.49994A2.01327 2.01327 0 0 0 30.73492 14.49885zM23.82086 16.58479l-9.5 9.5a2 2 0 0 0 2.82819 2.82806L26.649 19.41291A2 2 0 0 0 23.82086 16.58479zM53.82086 39.41291a1.99928 1.99928 0 0 0 2.82813 0l6.5-6.5a2 2 0 0 0-2.82819-2.82806l-6.49994 6.49994A1.99926 1.99926 0 0 0 53.82086 39.41291zM45.73492 58.99885a9.51081 9.51081 0 0 0 9.5-9.5c-.52188-12.603-18.48-12.59936-19 .00007A9.51081 9.51081 0 0 0 45.73492 58.99885zm0-15c7.26857.23107 7.26687 10.77-.00012 11C38.46635 54.76778 38.46806 44.22884 45.73492 43.99885zM18.23492 13.94752a7.00785 7.00785 0 0 0 7-7c-.32862-9.26457-13.67277-9.26219-14 .00012A7.00784 7.00784 0 0 0 18.23492 13.94752zm0-10a3.00019 3.00019 0 0 1-.00009 6A3.00019 3.00019 0 0 1 18.23492 3.94752zM51.23492 28.99885a2.0002 2.0002 0 0 0 4-.00008A2.0002 2.0002 0 0 0 51.23492 28.99885z"/><path fill="#007da1" d="M11.23492,48.99885a2.0002,2.0002,0,0,0,.00009,4A2.0002,2.0002,0,0,0,11.23492,48.99885Z"/></svg>